# xmcd
#
# Track frame offsets: 
#        150
#        22826
#        39430
#        53487
#        78875
#        94440
#        117886
#        136008
#        156853
#        176861
#
# Disc length: 2672 seconds
#
# Revision: 0
# Processed by: cddbd v1.5.1PL0 Copyright (c) Steve Scherf et al.
# Submitted via: ExactAudioCopy v0.95a5
#
DISCID=710a6e0a
DTITLE=Amargao - De Corazón!
DYEAR=2005
DGENRE=Latin
TTITLE0=Te Veo Venir Soledad
TTITLE1=O El O Yo
TTITLE2=Lastima
TTITLE3=Nunca Nunca
TTITLE4=Porque
TTITLE5=Perdido
TTITLE6=Si Lloro
TTITLE7=No Se Que Hacer
TTITLE8=Chica Del Colegio
TTITLE9=Mi Adorada
EXTD=
EXTT0=
EXTT1=
EXTT2=
EXTT3=
EXTT4=
EXTT5=
EXTT6=
EXTT7=
EXTT8=
EXTT9=
PLAYORDER=
